<?xml version="1.0" encoding="UTF-8" standalone="no"?>
<!-- Generator: Adobe Illustrator 19.0.0, SVG Export Plug-In . SVG Version: 6.00 Build 0)  -->

<svg
   xmlns:dc="http://purl.org/dc/elements/1.1/"
   xmlns:cc="http://creativecommons.org/ns#"
   xmlns:rdf="http://www.w3.org/1999/02/22-rdf-syntax-ns#"
   xmlns:svg="http://www.w3.org/2000/svg"
   xmlns="http://www.w3.org/2000/svg"
   xmlns:sodipodi="http://sodipodi.sourceforge.net/DTD/sodipodi-0.dtd"
   xmlns:inkscape="http://www.inkscape.org/namespaces/inkscape"
   version="1.1"
   id="Capa_1"
   x="0px"
   y="0px"
   viewBox="0 0 430 240"
   xml:space="preserve"
   sodipodi:docname="img04.svg"
   width="430"
   height="240"
   inkscape:version="0.92.5 (2060ec1f9f, 2020-04-08)"><metadata
   id="metadata77"><rdf:RDF><cc:Work
       rdf:about=""><dc:format>image/svg+xml</dc:format><dc:type
         rdf:resource="http://purl.org/dc/dcmitype/StillImage" /><dc:title /></cc:Work></rdf:RDF></metadata><defs
   id="defs75"><marker
   inkscape:stockid="Arrow1Mend"
   orient="auto"
   refY="0.0"
   refX="0.0"
   id="marker7525"
   style="overflow:visible;"
   inkscape:isstock="true"><path
     id="path7523"
     d="M 0.0,0.0 L 5.0,-5.0 L -12.5,0.0 L 5.0,5.0 L 0.0,0.0 z "
     style="fill-rule:evenodd;stroke:#db3e2c;stroke-width:1pt;stroke-opacity:1;fill:#db3e2c;fill-opacity:1"
     transform="scale(0.4) rotate(180) translate(10,0)" /></marker><marker
   inkscape:stockid="Arrow2Mstart"
   orient="auto"
   refY="0"
   refX="0"
   id="Arrow2Mstart"
   style="overflow:visible"
   inkscape:isstock="true"><path
     id="path4767"
     style="fill:#db3e2c;fill-opacity:1;fill-rule:evenodd;stroke:#db3e2c;stroke-width:0.625;stroke-linejoin:round;stroke-opacity:1"
     d="M 8.7185878,4.0337352 -2.2072895,0.01601326 8.7185884,-4.0017078 c -1.7454984,2.3720609 -1.7354408,5.6174519 -6e-7,8.035443 z"
     transform="scale(0.6)"
     inkscape:connector-curvature="0" /></marker><marker
   inkscape:stockid="Arrow1Mend"
   orient="auto"
   refY="0"
   refX="0"
   id="Arrow1Mend"
   style="overflow:visible"
   inkscape:isstock="true"><path
     id="path4752"
     d="M 0,0 5,-5 -12.5,0 5,5 Z"
     style="fill:#000000;fill-opacity:1;fill-rule:evenodd;stroke:#000000;stroke-width:1.00000003pt;stroke-opacity:1"
     transform="matrix(-0.4,0,0,-0.4,-4,0)"
     inkscape:connector-curvature="0" /></marker><marker
   inkscape:stockid="Arrow1Send"
   orient="auto"
   refY="0"
   refX="0"
   id="Arrow1Send"
   style="overflow:visible"
   inkscape:isstock="true"><path
     id="path4758"
     d="M 0,0 5,-5 -12.5,0 5,5 Z"
     style="fill:#000000;fill-opacity:1;fill-rule:evenodd;stroke:#000000;stroke-width:1.00000003pt;stroke-opacity:1"
     transform="matrix(-0.2,0,0,-0.2,-1.2,0)"
     inkscape:connector-curvature="0" /></marker><marker
   inkscape:stockid="Arrow1Lstart"
   orient="auto"
   refY="0"
   refX="0"
   id="Arrow1Lstart"
   style="overflow:visible"
   inkscape:isstock="true"><path
     id="path4743"
     d="M 0,0 5,-5 -12.5,0 5,5 Z"
     style="fill:#000000;fill-opacity:1;fill-rule:evenodd;stroke:#000000;stroke-width:1.00000003pt;stroke-opacity:1"
     transform="matrix(0.8,0,0,0.8,10,0)"
     inkscape:connector-curvature="0" /></marker><marker
   inkscape:stockid="Arrow1Lend"
   orient="auto"
   refY="0"
   refX="0"
   id="Arrow1Lend"
   style="overflow:visible"
   inkscape:isstock="true"><path
     id="path4746"
     d="M 0,0 5,-5 -12.5,0 5,5 Z"
     style="fill:#000000;fill-opacity:1;fill-rule:evenodd;stroke:#000000;stroke-width:1.00000003pt;stroke-opacity:1"
     transform="matrix(-0.8,0,0,-0.8,-10,0)"
     inkscape:connector-curvature="0" /></marker>
	
	
	
	
	
	
	
	
	
	
	
	
	
	
	
	
	
	
	
</defs><sodipodi:namedview
   pagecolor="#ffffff"
   bordercolor="#666666"
   borderopacity="1"
   objecttolerance="10"
   gridtolerance="10"
   guidetolerance="10"
   inkscape:pageopacity="0"
   inkscape:pageshadow="2"
   inkscape:window-width="1310"
   inkscape:window-height="704"
   id="namedview73"
   showgrid="false"
   showguides="true"
   inkscape:guide-bbox="true"
   inkscape:snap-grids="false"
   inkscape:snap-bbox="true"
   inkscape:snap-nodes="false"
   inkscape:snap-text-baseline="true"
   inkscape:snap-page="true"
   inkscape:zoom="1.1593281"
   inkscape:cx="125.39484"
   inkscape:cy="204.66883"
   inkscape:window-x="56"
   inkscape:window-y="27"
   inkscape:window-maximized="1"
   inkscape:current-layer="Capa_1"><sodipodi:guide
     position="482.00062,-38.633638"
     orientation="0,1"
     id="guide3782"
     inkscape:locked="false" /></sodipodi:namedview>

<g
   id="g42"
   transform="translate(0,-223)">
</g>
<g
   id="g44"
   transform="translate(0,-223)">
</g>
<g
   id="g46"
   transform="translate(0,-223)">
</g>
<g
   id="g48"
   transform="translate(0,-223)">
</g>
<g
   id="g50"
   transform="translate(0,-223)">
</g>
<g
   id="g52"
   transform="translate(0,-223)">
</g>
<g
   id="g54"
   transform="translate(0,-223)">
</g>
<g
   id="g56"
   transform="translate(0,-223)">
</g>
<g
   id="g58"
   transform="translate(0,-223)">
</g>
<g
   id="g60"
   transform="translate(0,-223)">
</g>
<g
   id="g62"
   transform="translate(0,-223)">
</g>
<g
   id="g64"
   transform="translate(0,-223)">
</g>
<g
   id="g66"
   transform="translate(0,-223)">
</g>
<g
   id="g68"
   transform="translate(0,-223)">
</g>
<g
   id="g70"
   transform="translate(0,-223)">
</g>
<path
   inkscape:connector-curvature="0"
   id="path2"
   d="M 119.08296,135.14704 H 84.519769 c -1.78951,0 -3.240299,1.12275 -3.240299,2.50838 0,1.38563 1.450789,2.50838 3.240299,2.50838 h 34.563191 c 1.78951,0 3.2403,-1.12275 3.2403,-2.50838 0,-1.38563 -1.45079,-2.50838 -3.2403,-2.50838 z"
   style="stroke-width:0.38012642" /><path
   inkscape:connector-curvature="0"
   id="path4"
   d="M 119.08296,124.44461 H 84.519769 c -1.78951,0 -3.240299,1.12275 -3.240299,2.50838 0,1.38563 1.450789,2.50838 3.240299,2.50838 h 34.563191 c 1.78951,0 3.2403,-1.12275 3.2403,-2.50838 0,-1.38563 -1.45079,-2.50838 -3.2403,-2.50838 z"
   style="stroke-width:0.38012642" /><path
   inkscape:connector-curvature="0"
   id="path6"
   d="M 119.08296,28.12276 H 84.519769 c -1.78951,0 -3.240299,1.12275 -3.240299,2.50838 0,1.38563 1.450789,2.50838 3.240299,2.50838 h 34.563191 c 1.78951,0 3.2403,-1.12275 3.2403,-2.50838 0,-1.38563 -1.45079,-2.50838 -3.2403,-2.50838 z"
   style="stroke-width:0.38012642" /><path
   inkscape:connector-curvature="0"
   id="path8"
   d="M 119.08296,17.42033 H 84.519769 c -1.78951,0 -3.240299,1.12276 -3.240299,2.50839 0,1.38563 1.450789,2.50838 3.240299,2.50838 h 34.563191 c 1.78951,0 3.2403,-1.12275 3.2403,-2.50838 0,-1.38563 -1.45079,-2.50839 -3.2403,-2.50839 z"
   style="stroke-width:0.38012642" /><path
   inkscape:connector-curvature="0"
   id="path14"
   d="m 188.20933,4.0423 h -48.38846 c -2.66871,0 -5.0985,0.80235 -6.91264,2.11038 C 131.0941,4.84465 128.66431,4.0423 125.9956,4.0423 H 77.607131 c -2.66871,0 -5.098502,0.80235 -6.912637,2.11038 C 68.880358,4.84465 66.450566,4.0423 63.781856,4.0423 H 15.393394 c -5.5983716,0 -10.1529356,3.52578 -10.1529356,7.8596 v 133.78034 c 0,3.45688 2.8989873,6.39738 6.9126366,7.44688 v 3.25555 c 0,1.38563 1.45079,2.50838 3.240299,2.50838 1.789509,0 3.240299,-1.12275 3.240299,-2.50838 v -2.84284 h 41.907864 v 2.84284 c 0,1.38563 1.45079,2.50838 3.240299,2.50838 1.789509,0 3.240299,-1.12275 3.240299,-2.50838 v -3.25555 c 1.380367,-0.36087 2.62853,-0.94482 3.672339,-1.69734 1.043808,0.75252 2.291971,1.33647 3.672338,1.69734 v 3.25555 c 0,1.38563 1.45079,2.50838 3.240299,2.50838 1.789509,0 3.240299,-1.12275 3.240299,-2.50838 v -2.84284 h 41.90787 v 2.84284 c 0,1.38563 1.45079,2.50838 3.2403,2.50838 1.7895,0 3.24029,-1.12275 3.24029,-2.50838 v -3.25555 c 1.38037,-0.36087 2.62853,-0.94482 3.67234,-1.69734 1.04381,0.75252 2.29197,1.33647 3.67234,1.69734 v 3.25555 c 0,1.38563 1.45079,2.50838 3.2403,2.50838 1.78951,0 3.2403,-1.12275 3.2403,-2.50838 v -2.84284 h 41.90786 v 2.84284 c 0,1.38563 1.45079,2.50838 3.2403,2.50838 1.78951,0 3.2403,-1.12275 3.2403,-2.50838 v -3.25555 c 4.01365,-1.0495 6.91264,-3.99 6.91264,-7.44688 V 11.9019 c 0,-4.33382 -4.55457,-7.8596 -10.15294,-7.8596 z M 63.781856,148.52507 H 15.393394 c -2.024971,0 -3.672338,-1.27526 -3.672338,-2.84283 V 11.9019 c 0,-1.56758 1.647367,-2.84284 3.672338,-2.84284 h 48.388462 c 2.024971,0 3.672339,1.27526 3.672339,2.84284 v 133.78034 c 0,1.56757 -1.647368,2.84283 -3.672339,2.84283 z m 62.213744,0 H 77.607131 c -2.024971,0 -3.672339,-1.27526 -3.672339,-2.84283 V 11.9019 c 0,-1.56758 1.647368,-2.84284 3.672339,-2.84284 H 125.9956 c 2.02497,0 3.67233,1.27526 3.67233,2.84284 v 133.78034 c 0,1.56757 -1.64736,2.84283 -3.67233,2.84283 z m 65.88607,-2.84283 c 0,1.56757 -1.64737,2.84283 -3.67234,2.84283 h -48.38846 c -2.02497,0 -3.67234,-1.27526 -3.67234,-2.84283 V 11.9019 c 0,-1.56758 1.64737,-2.84284 3.67234,-2.84284 h 48.38846 c 2.02497,0 3.67234,1.27526 3.67234,2.84284 z"
   style="stroke-width:0.38012642" /><path
   inkscape:connector-curvature="0"
   id="path16"
   d="m 181.29669,135.14704 h -34.56318 c -1.78951,0 -3.2403,1.12275 -3.2403,2.50838 0,1.38563 1.45079,2.50838 3.2403,2.50838 h 34.56318 c 1.78951,0 3.2403,-1.12275 3.2403,-2.50838 0,-1.38563 -1.45079,-2.50838 -3.2403,-2.50838 z"
   style="stroke-width:0.38012642" /><path
   inkscape:connector-curvature="0"
   id="path18"
   d="m 181.29669,124.44461 h -34.56318 c -1.78951,0 -3.2403,1.12275 -3.2403,2.50838 0,1.38563 1.45079,2.50838 3.2403,2.50838 h 34.56318 c 1.78951,0 3.2403,-1.12275 3.2403,-2.50838 0,-1.38563 -1.45079,-2.50838 -3.2403,-2.50838 z"
   style="stroke-width:0.38012642" /><path
   inkscape:connector-curvature="0"
   id="path20"
   d="m 181.29669,28.12276 h -34.56318 c -1.78951,0 -3.2403,1.12275 -3.2403,2.50838 0,1.38563 1.45079,2.50838 3.2403,2.50838 h 34.56318 c 1.78951,0 3.2403,-1.12275 3.2403,-2.50838 0,-1.38563 -1.45079,-2.50838 -3.2403,-2.50838 z"
   style="stroke-width:0.38012642" /><path
   inkscape:connector-curvature="0"
   id="path22"
   d="m 181.29669,17.42033 h -34.56318 c -1.78951,0 -3.2403,1.12276 -3.2403,2.50839 0,1.38563 1.45079,2.50838 3.2403,2.50838 h 34.56318 c 1.78951,0 3.2403,-1.12275 3.2403,-2.50838 0,-1.38563 -1.45079,-2.50839 -3.2403,-2.50839 z"
   style="stroke-width:0.38012642" /><path
   inkscape:connector-curvature="0"
   id="path28"
   d="M 56.869219,135.14704 H 22.306032 c -1.789509,0 -3.240299,1.12275 -3.240299,2.50838 0,1.38563 1.45079,2.50838 3.240299,2.50838 h 34.563187 c 1.789509,0 3.240299,-1.12275 3.240299,-2.50838 0,-1.38563 -1.45079,-2.50838 -3.240299,-2.50838 z"
   style="stroke-width:0.38012642" /><path
   inkscape:connector-curvature="0"
   id="path30"
   d="M 56.869219,124.44461 H 22.306032 c -1.789509,0 -3.240299,1.12275 -3.240299,2.50838 0,1.38563 1.45079,2.50838 3.240299,2.50838 h 34.563187 c 1.789509,0 3.240299,-1.12275 3.240299,-2.50838 0,-1.38563 -1.45079,-2.50838 -3.240299,-2.50838 z"
   style="stroke-width:0.38012642" /><path
   inkscape:connector-curvature="0"
   id="path32"
   d="M 56.869219,28.12276 H 22.306032 c -1.789509,0 -3.240299,1.12275 -3.240299,2.50838 0,1.38563 1.45079,2.50838 3.240299,2.50838 h 34.563187 c 1.789509,0 3.240299,-1.12275 3.240299,-2.50838 0,-1.38563 -1.45079,-2.50838 -3.240299,-2.50838 z"
   style="stroke-width:0.38012642" /><path
   inkscape:connector-curvature="0"
   id="path34"
   d="M 56.869219,17.42033 H 22.306032 c -1.789509,0 -3.240299,1.12276 -3.240299,2.50839 0,1.38563 1.45079,2.50838 3.240299,2.50838 h 34.563187 c 1.789509,0 3.240299,-1.12275 3.240299,-2.50838 0,-1.38563 -1.45079,-2.50839 -3.240299,-2.50839 z"
   style="stroke-width:0.38012642" /><path
   inkscape:connector-curvature="0"
   id="path2-6"
   d="m 305.37373,135.14704 h -34.56319 c -1.78951,0 -3.2403,1.12275 -3.2403,2.50838 0,1.38563 1.45079,2.50838 3.2403,2.50838 h 34.56319 c 1.78951,0 3.2403,-1.12275 3.2403,-2.50838 0,-1.38563 -1.45079,-2.50838 -3.2403,-2.50838 z"
   style="stroke-width:0.38012642" /><path
   inkscape:connector-curvature="0"
   id="path4-7"
   d="m 305.37373,124.44461 h -34.56319 c -1.78951,0 -3.2403,1.12275 -3.2403,2.50838 0,1.38563 1.45079,2.50838 3.2403,2.50838 h 34.56319 c 1.78951,0 3.2403,-1.12275 3.2403,-2.50838 0,-1.38563 -1.45079,-2.50838 -3.2403,-2.50838 z"
   style="stroke-width:0.38012642" /><path
   inkscape:connector-curvature="0"
   id="path6-5"
   d="m 305.37373,28.12276 h -34.56319 c -1.78951,0 -3.2403,1.12275 -3.2403,2.50838 0,1.38563 1.45079,2.50838 3.2403,2.50838 h 34.56319 c 1.78951,0 3.2403,-1.12275 3.2403,-2.50838 0,-1.38563 -1.45079,-2.50838 -3.2403,-2.50838 z"
   style="stroke-width:0.38012642" /><path
   inkscape:connector-curvature="0"
   id="path8-3"
   d="m 305.37373,17.42033 h -34.56319 c -1.78951,0 -3.2403,1.12276 -3.2403,2.50839 0,1.38563 1.45079,2.50838 3.2403,2.50838 h 34.56319 c 1.78951,0 3.2403,-1.12275 3.2403,-2.50838 0,-1.38563 -1.45079,-2.50839 -3.2403,-2.50839 z"
   style="stroke-width:0.38012642" /><path
   inkscape:connector-curvature="0"
   id="path14-2"
   d="m 374.5001,4.0423 h -48.38846 c -2.66871,0 -5.0985,0.80235 -6.91264,2.11038 C 317.38487,4.84465 314.95507,4.0423 312.28636,4.0423 H 263.8979 c -2.66871,0 -5.0985,0.80235 -6.91264,2.11038 -1.81413,-1.30803 -4.24392,-2.11038 -6.91263,-2.11038 h -48.38847 c -5.59837,0 -10.15293,3.52578 -10.15293,7.8596 v 133.78034 c 0,3.45688 2.89899,6.39738 6.91264,7.44688 v 3.25555 c 0,1.38563 1.45079,2.50838 3.24029,2.50838 1.78951,0 3.2403,-1.12275 3.2403,-2.50838 v -2.84284 h 41.90787 v 2.84284 c 0,1.38563 1.45079,2.50838 3.2403,2.50838 1.78951,0 3.2403,-1.12275 3.2403,-2.50838 v -3.25555 c 1.38036,-0.36087 2.62853,-0.94482 3.67233,-1.69734 1.04381,0.75252 2.29198,1.33647 3.67234,1.69734 v 3.25555 c 0,1.38563 1.45079,2.50838 3.2403,2.50838 1.78951,0 3.2403,-1.12275 3.2403,-2.50838 v -2.84284 h 41.90787 v 2.84284 c 0,1.38563 1.45078,2.50838 3.24029,2.50838 1.78951,0 3.2403,-1.12275 3.2403,-2.50838 v -3.25555 c 1.38037,-0.36087 2.62853,-0.94482 3.67234,-1.69734 1.04381,0.75252 2.29197,1.33647 3.67234,1.69734 v 3.25555 c 0,1.38563 1.45079,2.50838 3.2403,2.50838 1.78951,0 3.2403,-1.12275 3.2403,-2.50838 v -2.84284 h 41.90786 v 2.84284 c 0,1.38563 1.45079,2.50838 3.2403,2.50838 1.78951,0 3.2403,-1.12275 3.2403,-2.50838 v -3.25555 c 4.01365,-1.0495 6.91264,-3.99 6.91264,-7.44688 V 11.9019 c 0,-4.33382 -4.55457,-7.8596 -10.15294,-7.8596 z M 250.07263,148.52507 h -48.38847 c -2.02497,0 -3.67233,-1.27526 -3.67233,-2.84283 V 11.9019 c 0,-1.56758 1.64736,-2.84284 3.67233,-2.84284 h 48.38847 c 2.02497,0 3.67234,1.27526 3.67234,2.84284 v 133.78034 c 0,1.56757 -1.64737,2.84283 -3.67234,2.84283 z m 62.21373,0 H 263.8979 c -2.02497,0 -3.67234,-1.27526 -3.67234,-2.84283 V 11.9019 c 0,-1.56758 1.64737,-2.84284 3.67234,-2.84284 h 48.38846 c 2.02497,0 3.67234,1.27526 3.67234,2.84284 v 133.78034 c 0,1.56757 -1.64737,2.84283 -3.67234,2.84283 z m 65.88608,-2.84283 c 0,1.56757 -1.64737,2.84283 -3.67234,2.84283 h -48.38846 c -2.02497,0 -3.67234,-1.27526 -3.67234,-2.84283 V 11.9019 c 0,-1.56758 1.64737,-2.84284 3.67234,-2.84284 h 48.38846 c 2.02497,0 3.67234,1.27526 3.67234,2.84284 z"
   style="stroke-width:0.38012642" /><path
   inkscape:connector-curvature="0"
   id="path16-9"
   d="m 367.58746,135.14704 h -34.56318 c -1.78951,0 -3.2403,1.12275 -3.2403,2.50838 0,1.38563 1.45079,2.50838 3.2403,2.50838 h 34.56318 c 1.78951,0 3.2403,-1.12275 3.2403,-2.50838 0,-1.38563 -1.45079,-2.50838 -3.2403,-2.50838 z"
   style="stroke-width:0.38012642" /><path
   inkscape:connector-curvature="0"
   id="path18-1"
   d="m 367.58746,124.44461 h -34.56318 c -1.78951,0 -3.2403,1.12275 -3.2403,2.50838 0,1.38563 1.45079,2.50838 3.2403,2.50838 h 34.56318 c 1.78951,0 3.2403,-1.12275 3.2403,-2.50838 0,-1.38563 -1.45079,-2.50838 -3.2403,-2.50838 z"
   style="stroke-width:0.38012642" /><path
   inkscape:connector-curvature="0"
   id="path20-2"
   d="m 367.58746,28.12276 h -34.56318 c -1.78951,0 -3.2403,1.12275 -3.2403,2.50838 0,1.38563 1.45079,2.50838 3.2403,2.50838 h 34.56318 c 1.78951,0 3.2403,-1.12275 3.2403,-2.50838 0,-1.38563 -1.45079,-2.50838 -3.2403,-2.50838 z"
   style="stroke-width:0.38012642" /><path
   inkscape:connector-curvature="0"
   id="path22-7"
   d="m 367.58746,17.42033 h -34.56318 c -1.78951,0 -3.2403,1.12276 -3.2403,2.50839 0,1.38563 1.45079,2.50838 3.2403,2.50838 h 34.56318 c 1.78951,0 3.2403,-1.12275 3.2403,-2.50838 0,-1.38563 -1.45079,-2.50839 -3.2403,-2.50839 z"
   style="stroke-width:0.38012642" /><path
   inkscape:connector-curvature="0"
   id="path28-3"
   d="M 243.15999,135.14704 H 208.5968 c -1.78951,0 -3.2403,1.12275 -3.2403,2.50838 0,1.38563 1.45079,2.50838 3.2403,2.50838 h 34.56319 c 1.78951,0 3.2403,-1.12275 3.2403,-2.50838 0,-1.38563 -1.45079,-2.50838 -3.2403,-2.50838 z"
   style="stroke-width:0.38012642" /><path
   inkscape:connector-curvature="0"
   id="path30-6"
   d="M 243.15999,124.44461 H 208.5968 c -1.78951,0 -3.2403,1.12275 -3.2403,2.50838 0,1.38563 1.45079,2.50838 3.2403,2.50838 h 34.56319 c 1.78951,0 3.2403,-1.12275 3.2403,-2.50838 0,-1.38563 -1.45079,-2.50838 -3.2403,-2.50838 z"
   style="stroke-width:0.38012642" /><path
   inkscape:connector-curvature="0"
   id="path32-0"
   d="M 243.15999,28.12276 H 208.5968 c -1.78951,0 -3.2403,1.12275 -3.2403,2.50838 0,1.38563 1.45079,2.50838 3.2403,2.50838 h 34.56319 c 1.78951,0 3.2403,-1.12275 3.2403,-2.50838 0,-1.38563 -1.45079,-2.50838 -3.2403,-2.50838 z"
   style="stroke-width:0.38012642" /><path
   inkscape:connector-curvature="0"
   id="path34-6"
   d="M 243.15999,17.42033 H 208.5968 c -1.78951,0 -3.2403,1.12276 -3.2403,2.50839 0,1.38563 1.45079,2.50838 3.2403,2.50838 h 34.56319 c 1.78951,0 3.2403,-1.12275 3.2403,-2.50838 0,-1.38563 -1.45079,-2.50839 -3.2403,-2.50839 z"
   style="stroke-width:0.38012642" /><text
   xml:space="preserve"
   style="font-style:normal;font-weight:normal;font-size:40px;line-height:1.25;font-family:sans-serif;letter-spacing:0px;word-spacing:0px;fill:#000080;fill-opacity:1;stroke:none"
   x="27.435152"
   y="190.63968"
   id="text3858"><tspan
     sodipodi:role="line"
     id="tspan3856"
     x="27.435152"
     y="190.63968">0</tspan></text>

<text
   xml:space="preserve"
   style="font-style:normal;font-weight:normal;font-size:40px;line-height:1.25;font-family:sans-serif;letter-spacing:0px;word-spacing:0px;fill:#000080;fill-opacity:1;stroke:none"
   x="89.856224"
   y="191.20609"
   id="text3858-1"><tspan
     sodipodi:role="line"
     id="tspan3856-8"
     x="89.856224"
     y="191.20609">1</tspan></text>

<text
   xml:space="preserve"
   style="font-style:normal;font-weight:normal;font-size:40px;line-height:1.25;font-family:sans-serif;letter-spacing:0px;word-spacing:0px;fill:#000080;fill-opacity:1;stroke:none"
   x="153.5273"
   y="191.20609"
   id="text3880"><tspan
     sodipodi:role="line"
     id="tspan3878"
     x="153.5273"
     y="191.20609">2</tspan></text>

<text
   xml:space="preserve"
   style="font-style:normal;font-weight:normal;font-size:40px;line-height:1.25;font-family:sans-serif;letter-spacing:0px;word-spacing:0px;fill:#000080;fill-opacity:1;stroke:none"
   x="215.85071"
   y="190.63968"
   id="text3884"><tspan
     sodipodi:role="line"
     id="tspan3882"
     x="215.85071"
     y="190.63968">3</tspan></text>

<text
   xml:space="preserve"
   style="font-style:normal;font-weight:normal;font-size:40px;line-height:1.25;font-family:sans-serif;letter-spacing:0px;word-spacing:0px;fill:#000080;fill-opacity:1;stroke:none"
   x="278.70145"
   y="191.20609"
   id="text3888"><tspan
     sodipodi:role="line"
     id="tspan3886"
     x="278.70145"
     y="191.20609">4</tspan></text>

<text
   xml:space="preserve"
   style="font-style:normal;font-weight:normal;font-size:40px;line-height:1.25;font-family:sans-serif;letter-spacing:0px;word-spacing:0px;fill:#000080;fill-opacity:1;stroke:none"
   x="341.54245"
   y="190.63968"
   id="text3892"><tspan
     sodipodi:role="line"
     id="tspan3890"
     x="341.54245"
     y="190.63968">5</tspan></text>

<text
   xml:space="preserve"
   style="font-style:normal;font-weight:normal;font-size:40px;line-height:1.25;font-family:sans-serif;letter-spacing:0px;word-spacing:0px;fill:#0000ff;fill-opacity:1;stroke:none"
   x="132.45818"
   y="238"
   id="text3934"><tspan
     sodipodi:role="line"
     id="tspan3932"
     x="132.45818"
     y="238">Indices</tspan></text>

<path
   style="fill:none;stroke:#db3e2c;stroke-width:3.4;stroke-linecap:round;stroke-linejoin:bevel;stroke-miterlimit:11.69999981;stroke-dasharray:none;stroke-opacity:1;marker-end:url(#Arrow2Mstart)"
   d="m 282.39349,223.28244 c 0,0 143.70976,-1.41145 143.49638,-25.75576 -0.21338,-24.34431 -52.43137,-21.15651 -52.43137,-21.15651 v 0 0"
   id="path3936"
   inkscape:connector-curvature="0"
   sodipodi:nodetypes="czccc" /><text
   xml:space="preserve"
   style="font-style:normal;font-weight:normal;font-size:40px;line-height:1.25;font-family:sans-serif;letter-spacing:0px;word-spacing:0px;fill:#d40000;fill-opacity:1;stroke:none"
   x="13.008623"
   y="93.55558"
   id="text7411"><tspan
     sodipodi:role="line"
     id="tspan7409"
     x="13.008623"
     y="93.55558">18</tspan></text>

<text
   xml:space="preserve"
   style="font-style:normal;font-weight:normal;font-size:40px;line-height:1.25;font-family:sans-serif;letter-spacing:0px;word-spacing:0px;fill:#d40000;fill-opacity:1;stroke:none"
   x="263.13116"
   y="93.55558"
   id="text7411-7"><tspan
     sodipodi:role="line"
     id="tspan7409-9"
     x="263.13116"
     y="93.55558">15</tspan></text>

<text
   xml:space="preserve"
   style="font-style:normal;font-weight:normal;font-size:40px;line-height:1.25;font-family:sans-serif;letter-spacing:0px;word-spacing:0px;fill:#d40000;fill-opacity:1;stroke:none"
   x="201.04732"
   y="93.55558"
   id="text7411-2"><tspan
     sodipodi:role="line"
     id="tspan7409-0"
     x="201.04732"
     y="93.55558">28</tspan></text>

<text
   xml:space="preserve"
   style="font-style:normal;font-weight:normal;font-size:40px;line-height:1.25;font-family:sans-serif;letter-spacing:0px;word-spacing:0px;fill:#d40000;fill-opacity:1;stroke:none"
   x="151.29744"
   y="93.55558"
   id="text7411-23"><tspan
     sodipodi:role="line"
     id="tspan7409-7"
     x="151.29744"
     y="93.55558">6</tspan></text>

<text
   xml:space="preserve"
   style="font-style:normal;font-weight:normal;font-size:40px;line-height:1.25;font-family:sans-serif;letter-spacing:0px;word-spacing:0px;fill:#d40000;fill-opacity:1;stroke:none"
   x="76.410843"
   y="93.55558"
   id="text7411-5"><tspan
     sodipodi:role="line"
     id="tspan7409-92"
     x="76.410843"
     y="93.55558">23</tspan></text>

<text
   xml:space="preserve"
   style="font-style:normal;font-weight:normal;font-size:40px;line-height:1.25;font-family:sans-serif;letter-spacing:0px;word-spacing:0px;fill:#d40000;fill-opacity:1;stroke:none"
   x="338.81854"
   y="93.55558"
   id="text7411-0"><tspan
     sodipodi:role="line"
     id="tspan7409-36"
     x="338.81854"
     y="93.55558">3</tspan></text>

</svg>